<?xml version="1.0" encoding="UTF-8" standalone="no"?>
<svg
   width="394.1282pt"
   height="444.03018pt"
   viewBox="0 0 394.1282 444.03018"
   version="1.1"
   id="svg486"
   sodipodi:docname="BacArchive.svg"
   inkscape:version="1.2.2 (b0a8486541, 2022-12-01)"
   xmlns:inkscape="http://www.inkscape.org/namespaces/inkscape"
   xmlns:sodipodi="http://sodipodi.sourceforge.net/DTD/sodipodi-0.dtd"
   xmlns="http://www.w3.org/2000/svg"
   xmlns:svg="http://www.w3.org/2000/svg">
  <defs
     id="defs490" />
  <sodipodi:namedview
     id="namedview488"
     pagecolor="#ffffff"
     bordercolor="#000000"
     borderopacity="0.25"
     inkscape:showpageshadow="2"
     inkscape:pageopacity="0.0"
     inkscape:pagecheckerboard="0"
     inkscape:deskcolor="#d1d1d1"
     inkscape:document-units="pt"
     showgrid="false"
     inkscape:zoom="0.75732422"
     inkscape:cx="126.10187"
     inkscape:cy="283.89426"
     inkscape:window-width="1360"
     inkscape:window-height="697"
     inkscape:window-x="-8"
     inkscape:window-y="-8"
     inkscape:window-maximized="1"
     inkscape:current-layer="g484" />
  <g
     fill="#474a56"
     style="fill:#2a7fff;fill-opacity:1"
     id="g484"
     transform="translate(-56.781514,-43.189015)">
    <path
       d="m 187.3,43.4 c 23.11,-0.73 46.3,0.41 69.18,3.8 20.32,3.18 40.74,7.8 59.23,17.09 9.68,5.09 19.27,11.74 24.46,21.66 2.24,4.32 3.42,9.17 3.34,14.04 0.03,20.99 -0.02,41.99 0.03,62.99 0.39,8.6 -3.76,16.89 -9.64,22.97 -7.81,8.09 -18.02,13.31 -28.31,17.54 -20.94,8.31 -43.33,12.2 -65.63,14.6 -37.36,3.58 -75.33,2.46 -112.17,-4.93 -16.6,-3.56 -33.21,-8.32 -47.97,-16.92 -9.44,-5.6 -18.53,-13.41 -21.8,-24.28 -1.75,-4.77 -1.12,-9.92 -1.16,-14.89 -0.03,-16.03 -0.02,-32.05 -0.01,-48.08 -0.03,-6.95 -0.47,-14.23 2.37,-20.75 3.62,-8.7 11,-15.18 18.81,-20.11 14.36,-8.88 30.74,-13.77 47.08,-17.47 20.44,-4.41 41.31,-6.58 62.19,-7.26 m -16.7,27.41 c -20.16,1.61 -40.31,4.83 -59.55,11.22 -7.58,2.62 -15.16,5.6 -21.78,10.21 -2.42,1.76 -5.03,3.76 -5.92,6.77 0.93,4.9 5.87,7.4 9.71,9.85 14.8,8.16 31.45,12.21 47.94,15.31 31.95,5.52 64.67,6.14 96.91,3.02 20.07,-2.16 40.19,-5.84 59.03,-13.33 6.26,-2.66 12.68,-5.53 17.63,-10.33 1.7,-1.63 3.39,-4.38 1.56,-6.55 -3.51,-4.72 -9.05,-7.32 -14.16,-9.92 C 283.55,78.72 263.51,74.73 243.56,72.18 219.37,69.3 194.89,68.96 170.6,70.81 M 56.89,232.99 c -0.09,-6.94 6.22,-13.05 13.12,-12.94 6.45,-0.12 12.25,5.14 13.21,11.43 0.59,5.59 5.98,8.53 10.31,11.11 11.41,6.26 24.02,9.91 36.63,12.85 17.02,3.81 34.41,5.84 51.82,6.61 24.55,1.16 49.26,0.19 73.54,-3.74 15.48,-2.61 30.91,-6.3 45.3,-12.7 -3.06,29.45 -6.25,58.88 -9.29,88.33 -7.19,0.29 -14.39,-0.21 -21.56,0.21 -11.4,1.14 -22.73,7.17 -28.66,17.19 -24.02,2.56 -48.27,2.8 -72.35,0.98 -19.11,-1.57 -38.2,-4.33 -56.7,-9.47 -14.29,-4.1 -28.6,-9.41 -40.45,-18.6 -7.87,-6.12 -14.46,-15.04 -14.96,-25.29 0.02,-21.99 -0.08,-43.98 0.04,-65.97"
       style="fill:#2a7fff;fill-opacity:1"
       id="path480" />
    <path
       d="m 329.18,238.3 c 3.67,-9.45 12.67,-16.56 22.71,-17.94 14.72,-2.51 30.02,8.38 32.44,23.1 4.05,39.02 8.22,78.03 12.3,117.04 14.15,0.07 28.31,-0.02 42.46,0.03 6.45,0.05 12.2,5.99 11.8,12.49 0.25,4.79 -3.22,8.39 -6.04,11.8 -25.07,30.91 -50.09,61.87 -75.19,92.77 -2.85,3.34 -5.26,7.62 -9.73,8.97 -4.82,1.71 -10.49,0 -13.59,-4.05 -27.59,-34.02 -55.18,-68.04 -82.72,-102.09 -3.67,-4.37 -3.39,-11.28 0.32,-15.53 2.43,-2.91 6.26,-4.42 10.01,-4.35 13.81,-0.02 27.62,-0.01 41.42,-0.02 3.77,-35.54 7.52,-71.08 11.25,-106.63 0.63,-5.22 0.44,-10.67 2.56,-15.59 M 56.84,365 c -0.14,-6.29 4.91,-12.05 11.06,-13.02 6.03,-1.11 12.29,2.75 14.53,8.34 1.03,2.72 0.76,6.09 3.07,8.21 3.61,3.61 8.17,6.1 12.74,8.28 13.56,6.3 28.19,9.92 42.84,12.63 32.55,5.65 65.86,6.03 98.69,2.88 1.67,2.9 3.75,5.52 5.88,8.09 18.83,23.22 37.66,46.44 56.45,69.69 -21.2,7.74 -43.64,11.46 -66.04,13.58 -34.49,2.98 -69.44,1.92 -103.52,-4.38 -19.47,-3.8 -39.17,-9.09 -56.04,-19.9 -9.84,-6.35 -18.86,-16.17 -19.63,-28.39 -0.07,-22 0,-44.01 -0.03,-66.01"
       style="fill:#2a7fff;fill-opacity:1"
       id="path482" />
  </g>
</svg>
